<svg id="visual" viewBox="0 0 900 600" width="900" height="600" xmlns="http://www.w3.org/2000/svg" xmlns:xlink="http://www.w3.org/1999/xlink" version="1.1"><rect x="0" y="0" width="900" height="600" fill="#dddddd"></rect><path d="M0 440L129 431L257 409L386 420L514 417L643 383L771 448L900 447L900 601L771 601L643 601L514 601L386 601L257 601L129 601L0 601Z" fill="#176fa5"></path><path d="M0 396L129 465L257 416L386 426L514 424L643 416L771 428L900 466L900 601L771 601L643 601L514 601L386 601L257 601L129 601L0 601Z" fill="#126294"></path><path d="M0 484L129 484L257 501L386 485L514 462L643 490L771 482L900 438L900 601L771 601L643 601L514 601L386 601L257 601L129 601L0 601Z" fill="#0c5684"></path><path d="M0 494L129 500L257 533L386 518L514 484L643 514L771 527L900 499L900 601L771 601L643 601L514 601L386 601L257 601L129 601L0 601Z" fill="#054a74"></path><path d="M0 543L129 541L257 569L386 537L514 551L643 564L771 555L900 543L900 601L771 601L643 601L514 601L386 601L257 601L129 601L0 601Z" fill="#003e65"></path></svg>